<svg xmlns="http://www.w3.org/2000/svg" xmlns:xlink="http://www.w3.org/1999/xlink" width="500" zoomAndPan="magnify" viewBox="0 0 375 187.499995" height="250" preserveAspectRatio="xMidYMid meet" version="1.2"><defs><clipPath id="9ce91b4291"><path d="M 59 17 L 179.179688 17 L 179.179688 178 L 59 178 Z M 59 17 "/></clipPath></defs><g id="55d86a7cc2"><path style=" stroke:none;fill-rule:nonzero;fill:#252b41;fill-opacity:1;" d="M 66.582031 152.539062 L 70.875 146.546875 C 68.785156 145.359375 66.75 144.074219 64.792969 142.675781 C 54.757812 135.480469 46.867188 125.84375 41.859375 114.683594 L 77.097656 86.4375 L 84.015625 128.1875 L 92.722656 116.027344 L 91.832031 110.632812 L 95.628906 111.96875 L 101.585938 103.648438 L 89.496094 99.097656 L 86.167969 78.984375 L 101.921875 66.039062 L 121.023438 73.214844 L 121.464844 75.886719 L 129.824219 64.210938 L 122.300781 18.769531 C 130.664062 20.898438 138.671875 24.617188 145.726562 29.664062 C 147.683594 31.066406 149.554688 32.566406 151.34375 34.15625 L 155.632812 28.167969 C 153.824219 26.597656 151.945312 25.105469 149.988281 23.710938 C 140.621094 17 129.710938 12.425781 118.4375 10.457031 L 117.605469 10.308594 L 117.597656 10.261719 L 116.664062 10.144531 L 113.339844 9.578125 L 113.371094 9.769531 C 106.507812 9.035156 99.558594 9.230469 92.699219 10.367188 C 75.832031 13.148438 60.757812 21.234375 49.109375 33.714844 L 48.515625 34.347656 L 48.46875 34.328125 L 47.863281 35.039062 L 45.554688 37.511719 L 45.75 37.597656 C 31.789062 54.722656 25.839844 76.894531 29.449219 98.710938 C 30.167969 103.066406 31.277344 107.394531 32.730469 111.570312 L 33.011719 112.378906 L 32.984375 112.402344 L 33.3125 113.242188 L 34.441406 116.464844 L 34.589844 116.332031 C 40.085938 129.253906 49.027344 140.402344 60.523438 148.636719 C 62.480469 150.03125 64.503906 151.332031 66.582031 152.539062 Z M 93.898438 17.597656 C 99.667969 16.640625 105.492188 16.417969 111.257812 16.914062 L 118.554688 60.960938 L 58.226562 34.984375 C 68.15625 25.804688 80.390625 19.832031 93.898438 17.597656 Z M 36.679688 97.511719 C 33.484375 78.199219 38.550781 58.574219 50.597656 43.226562 L 91.90625 61.003906 L 38.109375 104.117188 C 37.539062 101.9375 37.054688 99.730469 36.679688 97.511719 Z M 36.679688 97.511719 "/><g clip-rule="nonzero" clip-path="url(#9ce91b4291)"><path style=" stroke:none;fill-rule:nonzero;fill:#252b41;fill-opacity:1;" d="M 59.582031 171.628906 L 170.191406 17.15625 L 179.007812 23.472656 L 68.402344 177.941406 Z M 59.582031 171.628906 "/></g><g style="fill:#252b41;fill-opacity:1;"><g transform="translate(179.010514, 101.356188)"><path style="stroke:none" d="M 15.015625 -33.09375 L 15.015625 -8.078125 C 15.015625 -7.140625 15.273438 -6.410156 15.796875 -5.890625 C 16.328125 -5.378906 17.03125 -5.125 17.90625 -5.125 L 25.34375 -5.125 L 25.34375 0 L 17.5 0 C 14.957031 0 12.960938 -0.707031 11.515625 -2.125 C 10.066406 -3.550781 9.34375 -5.535156 9.34375 -8.078125 L 9.34375 -27.984375 L 1.40625 -27.984375 L 1.40625 -33.09375 Z M 15.015625 -33.09375 "/></g></g><g style="fill:#252b41;fill-opacity:1;"><g transform="translate(206.212779, 101.356188)"><path style="stroke:none" d="M 13.609375 0.453125 C 11.972656 0.453125 10.484375 0.21875 9.140625 -0.25 C 7.796875 -0.71875 6.65625 -1.375 5.71875 -2.21875 C 4.78125 -3.0625 4.050781 -4.085938 3.53125 -5.296875 C 3.019531 -6.515625 2.765625 -7.863281 2.765625 -9.34375 L 2.765625 -15.640625 C 2.765625 -17.117188 3.019531 -18.460938 3.53125 -19.671875 C 4.050781 -20.890625 4.78125 -21.921875 5.71875 -22.765625 C 6.65625 -23.609375 7.796875 -24.253906 9.140625 -24.703125 C 10.484375 -25.160156 11.972656 -25.390625 13.609375 -25.390625 C 15.234375 -25.390625 16.710938 -25.15625 18.046875 -24.6875 C 19.378906 -24.21875 20.515625 -23.5625 21.453125 -22.71875 C 22.390625 -21.875 23.113281 -20.84375 23.625 -19.625 C 24.132812 -18.414062 24.390625 -17.070312 24.390625 -15.59375 L 24.390625 -11.0625 L 8.390625 -11.0625 L 8.390625 -9.4375 C 8.390625 -7.769531 8.847656 -6.46875 9.765625 -5.53125 C 10.691406 -4.59375 11.972656 -4.125 13.609375 -4.125 C 14.847656 -4.125 15.894531 -4.3125 16.75 -4.6875 C 17.613281 -5.070312 18.226562 -5.625 18.59375 -6.34375 L 24.171875 -6.34375 C 23.898438 -5.320312 23.445312 -4.382812 22.8125 -3.53125 C 22.175781 -2.6875 21.394531 -1.96875 20.46875 -1.375 C 19.550781 -0.789062 18.507812 -0.335938 17.34375 -0.015625 C 16.175781 0.296875 14.929688 0.453125 13.609375 0.453125 Z M 18.8125 -14.875 L 18.8125 -15.59375 C 18.8125 -17.257812 18.359375 -18.550781 17.453125 -19.46875 C 16.546875 -20.394531 15.265625 -20.859375 13.609375 -20.859375 C 11.972656 -20.859375 10.691406 -20.394531 9.765625 -19.46875 C 8.847656 -18.550781 8.390625 -17.273438 8.390625 -15.640625 L 8.390625 -14.875 Z M 18.8125 -14.875 "/></g></g><g style="fill:#252b41;fill-opacity:1;"><g transform="translate(233.415044, 101.356188)"><path style="stroke:none" d="M 3.265625 0 L 3.265625 -24.9375 L 8.65625 -24.9375 L 8.65625 -20.625 L 9.0625 -20.625 C 9.34375 -22.144531 10.054688 -23.316406 11.203125 -24.140625 C 12.347656 -24.972656 13.828125 -25.390625 15.640625 -25.390625 C 18.148438 -25.390625 20.144531 -24.570312 21.625 -22.9375 C 23.101562 -21.3125 23.84375 -19.109375 23.84375 -16.328125 L 23.84375 0 L 18.1875 0 L 18.1875 -15.640625 C 18.1875 -17.148438 17.773438 -18.335938 16.953125 -19.203125 C 16.140625 -20.066406 15.023438 -20.5 13.609375 -20.5 C 12.148438 -20.5 11.003906 -20.050781 10.171875 -19.15625 C 9.347656 -18.257812 8.9375 -17.039062 8.9375 -15.5 L 8.9375 0 Z M 3.265625 0 "/></g></g><g style="fill:#252b41;fill-opacity:1;"><g transform="translate(260.617309, 101.356188)"><path style="stroke:none" d="M 3.578125 -24.9375 L 23.484375 -24.9375 L 23.484375 -19.59375 L 9.796875 -4.71875 C 10.160156 -4.75 10.535156 -4.796875 10.921875 -4.859375 C 11.253906 -4.878906 11.609375 -4.894531 11.984375 -4.90625 C 12.367188 -4.925781 12.742188 -4.9375 13.109375 -4.9375 L 23.984375 -4.9375 L 23.984375 0 L 3.21875 0 L 3.21875 -5.34375 L 16.953125 -20.171875 C 16.566406 -20.140625 16.175781 -20.113281 15.78125 -20.09375 C 15.445312 -20.0625 15.078125 -20.035156 14.671875 -20.015625 C 14.265625 -20.003906 13.878906 -20 13.515625 -20 L 3.578125 -20 Z M 3.578125 -24.9375 "/></g></g><g style="fill:#252b41;fill-opacity:1;"><g transform="translate(287.819574, 101.356188)"><path style="stroke:none" d="M 9.203125 -3.984375 C 9.203125 -5.347656 9.601562 -6.429688 10.40625 -7.234375 C 11.207031 -8.035156 12.273438 -8.4375 13.609375 -8.4375 C 14.960938 -8.4375 16.03125 -8.035156 16.8125 -7.234375 C 17.601562 -6.429688 18 -5.347656 18 -3.984375 C 18 -2.660156 17.601562 -1.585938 16.8125 -0.765625 C 16.03125 0.046875 14.960938 0.453125 13.609375 0.453125 C 12.273438 0.453125 11.207031 0.046875 10.40625 -0.765625 C 9.601562 -1.585938 9.203125 -2.660156 9.203125 -3.984375 Z M 9.203125 -3.984375 "/></g></g><g style="fill:#252b41;fill-opacity:1;"><g transform="translate(134.885433, 130.843408)"><path style="stroke:none" d="M 2.640625 0.09375 C 2.328125 0.09375 2.039062 0.0507812 1.78125 -0.03125 C 1.519531 -0.113281 1.296875 -0.234375 1.109375 -0.390625 C 0.921875 -0.546875 0.769531 -0.734375 0.65625 -0.953125 C 0.550781 -1.171875 0.492188 -1.414062 0.484375 -1.6875 L 1.609375 -1.6875 C 1.617188 -1.425781 1.71875 -1.222656 1.90625 -1.078125 C 2.101562 -0.941406 2.359375 -0.875 2.671875 -0.875 C 2.992188 -0.875 3.242188 -0.945312 3.421875 -1.09375 C 3.597656 -1.238281 3.6875 -1.4375 3.6875 -1.6875 C 3.6875 -1.90625 3.617188 -2.09375 3.484375 -2.25 C 3.347656 -2.40625 3.160156 -2.519531 2.921875 -2.59375 L 2.25 -2.796875 C 1.15625 -3.097656 0.609375 -3.722656 0.609375 -4.671875 C 0.609375 -4.941406 0.65625 -5.1875 0.75 -5.40625 C 0.851562 -5.625 0.988281 -5.804688 1.15625 -5.953125 C 1.332031 -6.109375 1.546875 -6.226562 1.796875 -6.3125 C 2.054688 -6.394531 2.34375 -6.4375 2.65625 -6.4375 C 3.257812 -6.4375 3.742188 -6.28125 4.109375 -5.96875 C 4.472656 -5.664062 4.671875 -5.242188 4.703125 -4.703125 L 3.59375 -4.703125 C 3.570312 -4.941406 3.472656 -5.128906 3.296875 -5.265625 C 3.128906 -5.398438 2.910156 -5.46875 2.640625 -5.46875 C 2.347656 -5.46875 2.117188 -5.398438 1.953125 -5.265625 C 1.785156 -5.128906 1.703125 -4.953125 1.703125 -4.734375 C 1.703125 -4.304688 1.957031 -4.019531 2.46875 -3.875 L 3.1875 -3.6875 C 3.707031 -3.539062 4.101562 -3.300781 4.375 -2.96875 C 4.65625 -2.632812 4.796875 -2.222656 4.796875 -1.734375 C 4.796875 -1.460938 4.742188 -1.210938 4.640625 -0.984375 C 4.546875 -0.765625 4.40625 -0.570312 4.21875 -0.40625 C 4.03125 -0.25 3.800781 -0.125 3.53125 -0.03125 C 3.269531 0.0507812 2.972656 0.09375 2.640625 0.09375 Z M 2.640625 0.09375 "/></g></g><g style="fill:#252b41;fill-opacity:1;"><g transform="translate(140.176144, 130.843408)"><path style="stroke:none" d="M 0.734375 -1 L 2.46875 -1 L 2.46875 -3.84375 L 0.953125 -3.84375 L 0.953125 -4.84375 L 3.53125 -4.84375 L 3.53125 -1 L 4.921875 -1 L 4.921875 0 L 0.734375 0 Z M 2.15625 -6.15625 C 2.15625 -6.332031 2.210938 -6.472656 2.328125 -6.578125 C 2.441406 -6.679688 2.59375 -6.734375 2.78125 -6.734375 L 3 -6.734375 C 3.1875 -6.734375 3.335938 -6.679688 3.453125 -6.578125 C 3.566406 -6.472656 3.625 -6.332031 3.625 -6.15625 C 3.625 -5.976562 3.566406 -5.835938 3.453125 -5.734375 C 3.335938 -5.628906 3.1875 -5.578125 3 -5.578125 L 2.78125 -5.578125 C 2.59375 -5.578125 2.441406 -5.628906 2.328125 -5.734375 C 2.210938 -5.835938 2.15625 -5.976562 2.15625 -6.15625 Z M 2.15625 -6.15625 "/></g></g><g style="fill:#252b41;fill-opacity:1;"><g transform="translate(145.466855, 130.843408)"><path style="stroke:none" d="M 0.4375 -4.84375 L 1.265625 -4.84375 L 1.265625 -4.140625 L 1.34375 -4.140625 C 1.363281 -4.390625 1.445312 -4.582031 1.59375 -4.71875 C 1.738281 -4.863281 1.929688 -4.9375 2.171875 -4.9375 C 2.398438 -4.9375 2.59375 -4.863281 2.75 -4.71875 C 2.90625 -4.582031 3.007812 -4.390625 3.0625 -4.140625 L 3.109375 -4.140625 C 3.117188 -4.390625 3.195312 -4.582031 3.34375 -4.71875 C 3.488281 -4.863281 3.679688 -4.9375 3.921875 -4.9375 C 4.210938 -4.9375 4.441406 -4.828125 4.609375 -4.609375 C 4.773438 -4.390625 4.859375 -4.085938 4.859375 -3.703125 L 4.859375 0 L 3.9375 0 L 3.9375 -3.609375 C 3.9375 -3.972656 3.796875 -4.15625 3.515625 -4.15625 C 3.242188 -4.15625 3.109375 -3.96875 3.109375 -3.59375 L 3.109375 0 L 2.1875 0 L 2.1875 -3.609375 C 2.1875 -3.910156 2.085938 -4.085938 1.890625 -4.140625 C 1.835938 -4.148438 1.796875 -4.15625 1.765625 -4.15625 C 1.734375 -4.15625 1.6875 -4.148438 1.625 -4.140625 C 1.445312 -4.085938 1.359375 -3.90625 1.359375 -3.59375 L 1.359375 0 L 0.4375 0 Z M 0.4375 -4.84375 "/></g></g><g style="fill:#252b41;fill-opacity:1;"><g transform="translate(150.757566, 130.843408)"><path style="stroke:none" d="M 1.703125 -4.84375 L 1.703125 -4.015625 L 1.78125 -4.015625 C 1.84375 -4.296875 1.988281 -4.519531 2.21875 -4.6875 C 2.445312 -4.851562 2.734375 -4.9375 3.078125 -4.9375 C 3.335938 -4.9375 3.566406 -4.890625 3.765625 -4.796875 C 3.972656 -4.710938 4.148438 -4.585938 4.296875 -4.421875 C 4.441406 -4.253906 4.550781 -4.054688 4.625 -3.828125 C 4.707031 -3.597656 4.75 -3.335938 4.75 -3.046875 L 4.75 -1.828125 C 4.75 -1.535156 4.707031 -1.269531 4.625 -1.03125 C 4.550781 -0.789062 4.441406 -0.585938 4.296875 -0.421875 C 4.148438 -0.253906 3.972656 -0.125 3.765625 -0.03125 C 3.566406 0.0507812 3.335938 0.09375 3.078125 0.09375 C 2.734375 0.09375 2.445312 0.0078125 2.21875 -0.15625 C 1.988281 -0.320312 1.84375 -0.550781 1.78125 -0.84375 L 1.703125 -0.84375 C 1.703125 -0.820312 1.707031 -0.785156 1.71875 -0.734375 C 1.726562 -0.679688 1.734375 -0.613281 1.734375 -0.53125 C 1.742188 -0.457031 1.75 -0.367188 1.75 -0.265625 C 1.75 -0.171875 1.75 -0.0820312 1.75 0 L 1.75 1.453125 L 0.640625 1.453125 L 0.640625 -4.84375 Z M 1.75 -1.828125 C 1.75 -1.546875 1.832031 -1.316406 2 -1.140625 C 2.164062 -0.960938 2.394531 -0.875 2.6875 -0.875 C 2.988281 -0.875 3.222656 -0.960938 3.390625 -1.140625 C 3.554688 -1.316406 3.640625 -1.554688 3.640625 -1.859375 L 3.640625 -3.015625 C 3.640625 -3.316406 3.554688 -3.550781 3.390625 -3.71875 C 3.222656 -3.894531 2.988281 -3.984375 2.6875 -3.984375 C 2.40625 -3.984375 2.175781 -3.894531 2 -3.71875 C 1.832031 -3.539062 1.75 -3.304688 1.75 -3.015625 Z M 1.75 -1.828125 "/></g></g><g style="fill:#252b41;fill-opacity:1;"><g transform="translate(156.048277, 130.843408)"><path style="stroke:none" d="M 2.921875 -6.4375 L 2.921875 -1.5625 C 2.921875 -1.382812 2.96875 -1.242188 3.0625 -1.140625 C 3.164062 -1.046875 3.304688 -1 3.484375 -1 L 4.921875 -1 L 4.921875 0 L 3.40625 0 C 2.90625 0 2.515625 -0.132812 2.234375 -0.40625 C 1.953125 -0.6875 1.8125 -1.070312 1.8125 -1.5625 L 1.8125 -5.4375 L 0.265625 -5.4375 L 0.265625 -6.4375 Z M 2.921875 -6.4375 "/></g></g><g style="fill:#252b41;fill-opacity:1;"><g transform="translate(161.338987, 130.843408)"><path style="stroke:none" d="M 2.640625 0.09375 C 2.328125 0.09375 2.039062 0.046875 1.78125 -0.046875 C 1.519531 -0.140625 1.296875 -0.265625 1.109375 -0.421875 C 0.929688 -0.585938 0.789062 -0.789062 0.6875 -1.03125 C 0.582031 -1.269531 0.53125 -1.53125 0.53125 -1.8125 L 0.53125 -3.046875 C 0.53125 -3.328125 0.582031 -3.582031 0.6875 -3.8125 C 0.789062 -4.050781 0.929688 -4.253906 1.109375 -4.421875 C 1.296875 -4.585938 1.519531 -4.710938 1.78125 -4.796875 C 2.039062 -4.890625 2.328125 -4.9375 2.640625 -4.9375 C 2.960938 -4.9375 3.25 -4.890625 3.5 -4.796875 C 3.757812 -4.703125 3.976562 -4.570312 4.15625 -4.40625 C 4.34375 -4.25 4.484375 -4.050781 4.578125 -3.8125 C 4.679688 -3.582031 4.734375 -3.320312 4.734375 -3.03125 L 4.734375 -2.15625 L 1.625 -2.15625 L 1.625 -1.828125 C 1.625 -1.503906 1.710938 -1.25 1.890625 -1.0625 C 2.078125 -0.882812 2.328125 -0.796875 2.640625 -0.796875 C 2.878906 -0.796875 3.082031 -0.832031 3.25 -0.90625 C 3.414062 -0.976562 3.535156 -1.085938 3.609375 -1.234375 L 4.703125 -1.234375 C 4.648438 -1.035156 4.5625 -0.851562 4.4375 -0.6875 C 4.3125 -0.519531 4.15625 -0.378906 3.96875 -0.265625 C 3.789062 -0.148438 3.585938 -0.0625 3.359375 0 C 3.140625 0.0625 2.898438 0.09375 2.640625 0.09375 Z M 3.65625 -2.890625 L 3.65625 -3.03125 C 3.65625 -3.351562 3.566406 -3.601562 3.390625 -3.78125 C 3.210938 -3.957031 2.960938 -4.046875 2.640625 -4.046875 C 2.328125 -4.046875 2.078125 -3.957031 1.890625 -3.78125 C 1.710938 -3.601562 1.625 -3.359375 1.625 -3.046875 L 1.625 -2.890625 Z M 3.65625 -2.890625 "/></g></g><g style="fill:#252b41;fill-opacity:1;"><g transform="translate(166.629698, 130.843408)"><path style="stroke:none" d=""/></g></g><g style="fill:#252b41;fill-opacity:1;"><g transform="translate(171.920409, 130.843408)"><path style="stroke:none" d="M 2.6875 -6.4375 C 3 -6.4375 3.28125 -6.390625 3.53125 -6.296875 C 3.78125 -6.210938 3.992188 -6.085938 4.171875 -5.921875 C 4.359375 -5.765625 4.503906 -5.566406 4.609375 -5.328125 C 4.710938 -5.097656 4.769531 -4.84375 4.78125 -4.5625 L 3.6875 -4.5625 C 3.675781 -4.84375 3.578125 -5.0625 3.390625 -5.21875 C 3.210938 -5.375 2.976562 -5.453125 2.6875 -5.453125 C 2.382812 -5.453125 2.140625 -5.363281 1.953125 -5.1875 C 1.773438 -5.019531 1.6875 -4.785156 1.6875 -4.484375 L 1.6875 -1.859375 C 1.6875 -1.554688 1.773438 -1.320312 1.953125 -1.15625 C 2.128906 -0.988281 2.375 -0.90625 2.6875 -0.90625 C 2.976562 -0.90625 3.210938 -0.984375 3.390625 -1.140625 C 3.578125 -1.304688 3.675781 -1.519531 3.6875 -1.78125 L 4.78125 -1.78125 C 4.75 -1.207031 4.546875 -0.75 4.171875 -0.40625 C 3.804688 -0.0703125 3.3125 0.09375 2.6875 0.09375 C 2.375 0.09375 2.085938 0.046875 1.828125 -0.046875 C 1.566406 -0.140625 1.34375 -0.269531 1.15625 -0.4375 C 0.976562 -0.613281 0.835938 -0.820312 0.734375 -1.0625 C 0.640625 -1.300781 0.59375 -1.566406 0.59375 -1.859375 L 0.59375 -4.484375 C 0.59375 -4.773438 0.640625 -5.039062 0.734375 -5.28125 C 0.835938 -5.53125 0.976562 -5.738281 1.15625 -5.90625 C 1.34375 -6.070312 1.566406 -6.203125 1.828125 -6.296875 C 2.085938 -6.390625 2.375 -6.4375 2.6875 -6.4375 Z M 2.6875 -6.4375 "/></g></g><g style="fill:#252b41;fill-opacity:1;"><g transform="translate(177.21112, 130.843408)"><path style="stroke:none" d="M 1.96875 -6.34375 L 1.96875 -1.015625 L 4.734375 -1.015625 L 4.734375 0 L 0.875 0 L 0.875 -6.34375 Z M 1.96875 -6.34375 "/></g></g><g style="fill:#252b41;fill-opacity:1;"><g transform="translate(182.501831, 130.843408)"><path style="stroke:none" d="M 0.734375 0 L 0.734375 -0.953125 L 2.09375 -0.953125 L 2.09375 -5.390625 L 0.734375 -5.390625 L 0.734375 -6.34375 L 4.5625 -6.34375 L 4.5625 -5.390625 L 3.203125 -5.390625 L 3.203125 -0.953125 L 4.5625 -0.953125 L 4.5625 0 Z M 0.734375 0 "/></g></g><g style="fill:#252b41;fill-opacity:1;"><g transform="translate(187.792541, 130.843408)"><path style="stroke:none" d=""/></g></g><g style="fill:#252b41;fill-opacity:1;"><g transform="translate(193.083252, 130.843408)"><path style="stroke:none" d="M 0.46875 -3.359375 L 0.46875 -4.359375 L 1.8125 -4.359375 L 1.8125 -5.046875 C 1.8125 -5.472656 1.945312 -5.8125 2.21875 -6.0625 C 2.5 -6.3125 2.875 -6.4375 3.34375 -6.4375 L 4.765625 -6.4375 L 4.765625 -5.46875 L 3.375 -5.46875 C 3.226562 -5.46875 3.113281 -5.425781 3.03125 -5.34375 C 2.957031 -5.257812 2.921875 -5.148438 2.921875 -5.015625 L 2.921875 -4.359375 L 4.765625 -4.359375 L 4.765625 -3.359375 L 2.921875 -3.359375 L 2.921875 0 L 1.8125 0 L 1.8125 -3.359375 Z M 0.46875 -3.359375 "/></g></g><g style="fill:#252b41;fill-opacity:1;"><g transform="translate(198.373963, 130.843408)"><path style="stroke:none" d="M 1.640625 -1.828125 C 1.640625 -1.535156 1.726562 -1.300781 1.90625 -1.125 C 2.082031 -0.957031 2.328125 -0.875 2.640625 -0.875 C 2.953125 -0.875 3.195312 -0.957031 3.375 -1.125 C 3.550781 -1.300781 3.640625 -1.535156 3.640625 -1.828125 L 3.640625 -3.015625 C 3.640625 -3.316406 3.550781 -3.550781 3.375 -3.71875 C 3.195312 -3.882812 2.953125 -3.96875 2.640625 -3.96875 C 2.335938 -3.96875 2.09375 -3.882812 1.90625 -3.71875 C 1.726562 -3.550781 1.640625 -3.316406 1.640625 -3.015625 Z M 0.53125 -3.015625 C 0.53125 -3.304688 0.582031 -3.566406 0.6875 -3.796875 C 0.789062 -4.035156 0.929688 -4.238281 1.109375 -4.40625 C 1.296875 -4.570312 1.519531 -4.703125 1.78125 -4.796875 C 2.039062 -4.890625 2.328125 -4.9375 2.640625 -4.9375 C 2.960938 -4.9375 3.25 -4.890625 3.5 -4.796875 C 3.757812 -4.703125 3.984375 -4.570312 4.171875 -4.40625 C 4.359375 -4.238281 4.5 -4.035156 4.59375 -3.796875 C 4.695312 -3.566406 4.75 -3.304688 4.75 -3.015625 L 4.75 -1.828125 C 4.75 -1.546875 4.695312 -1.285156 4.59375 -1.046875 C 4.5 -0.804688 4.359375 -0.601562 4.171875 -0.4375 C 3.992188 -0.269531 3.773438 -0.140625 3.515625 -0.046875 C 3.253906 0.046875 2.960938 0.09375 2.640625 0.09375 C 2.328125 0.09375 2.039062 0.046875 1.78125 -0.046875 C 1.519531 -0.140625 1.296875 -0.269531 1.109375 -0.4375 C 0.929688 -0.613281 0.789062 -0.816406 0.6875 -1.046875 C 0.582031 -1.285156 0.53125 -1.546875 0.53125 -1.828125 Z M 0.53125 -3.015625 "/></g></g><g style="fill:#252b41;fill-opacity:1;"><g transform="translate(203.664674, 130.843408)"><path style="stroke:none" d="M 0.84375 -4.84375 L 1.875 -4.84375 L 1.875 -4.015625 L 1.953125 -4.015625 C 2.015625 -4.304688 2.160156 -4.53125 2.390625 -4.6875 C 2.628906 -4.851562 2.929688 -4.9375 3.296875 -4.9375 C 3.816406 -4.9375 4.222656 -4.773438 4.515625 -4.453125 C 4.816406 -4.128906 4.96875 -3.679688 4.96875 -3.109375 L 4.96875 -2.765625 L 3.8125 -2.765625 L 3.8125 -3.015625 C 3.8125 -3.328125 3.722656 -3.566406 3.546875 -3.734375 C 3.378906 -3.910156 3.144531 -4 2.84375 -4 C 2.5625 -4 2.335938 -3.910156 2.171875 -3.734375 C 2.015625 -3.554688 1.9375 -3.316406 1.9375 -3.015625 L 1.9375 0 L 0.84375 0 Z M 0.84375 -4.84375 "/></g></g><g style="fill:#252b41;fill-opacity:1;"><g transform="translate(208.955385, 130.843408)"><path style="stroke:none" d=""/></g></g><g style="fill:#252b41;fill-opacity:1;"><g transform="translate(214.246095, 130.843408)"><path style="stroke:none" d="M 0.640625 0 L 0.640625 -4.84375 L 1.6875 -4.84375 L 1.6875 -4.015625 L 1.765625 -4.015625 C 1.816406 -4.304688 1.953125 -4.53125 2.171875 -4.6875 C 2.398438 -4.851562 2.691406 -4.9375 3.046875 -4.9375 C 3.523438 -4.9375 3.910156 -4.773438 4.203125 -4.453125 C 4.492188 -4.140625 4.640625 -3.710938 4.640625 -3.171875 L 4.640625 0 L 3.53125 0 L 3.53125 -3.046875 C 3.53125 -3.335938 3.453125 -3.566406 3.296875 -3.734375 C 3.140625 -3.898438 2.921875 -3.984375 2.640625 -3.984375 C 2.359375 -3.984375 2.132812 -3.894531 1.96875 -3.71875 C 1.8125 -3.550781 1.734375 -3.316406 1.734375 -3.015625 L 1.734375 0 Z M 0.640625 0 "/></g></g><g style="fill:#252b41;fill-opacity:1;"><g transform="translate(219.536806, 130.843408)"><path style="stroke:none" d="M 0.453125 -1.359375 C 0.453125 -1.597656 0.492188 -1.8125 0.578125 -2 C 0.671875 -2.195312 0.796875 -2.363281 0.953125 -2.5 C 1.117188 -2.632812 1.316406 -2.738281 1.546875 -2.8125 C 1.785156 -2.882812 2.046875 -2.921875 2.328125 -2.921875 L 3.546875 -2.921875 L 3.546875 -3.328125 C 3.546875 -3.554688 3.460938 -3.734375 3.296875 -3.859375 C 3.128906 -3.992188 2.898438 -4.0625 2.609375 -4.0625 C 2.367188 -4.0625 2.164062 -4.015625 2 -3.921875 C 1.832031 -3.835938 1.726562 -3.71875 1.6875 -3.5625 L 0.59375 -3.5625 C 0.675781 -3.988281 0.894531 -4.320312 1.25 -4.5625 C 1.601562 -4.8125 2.054688 -4.9375 2.609375 -4.9375 C 2.921875 -4.9375 3.203125 -4.898438 3.453125 -4.828125 C 3.703125 -4.753906 3.914062 -4.644531 4.09375 -4.5 C 4.269531 -4.363281 4.40625 -4.195312 4.5 -4 C 4.601562 -3.800781 4.65625 -3.582031 4.65625 -3.34375 L 4.65625 0 L 3.609375 0 L 3.609375 -0.953125 L 3.546875 -0.953125 C 3.484375 -0.628906 3.316406 -0.375 3.046875 -0.1875 C 2.773438 0 2.4375 0.09375 2.03125 0.09375 C 1.539062 0.09375 1.15625 -0.0351562 0.875 -0.296875 C 0.59375 -0.566406 0.453125 -0.921875 0.453125 -1.359375 Z M 2.40625 -0.78125 C 2.738281 -0.78125 3.007812 -0.859375 3.21875 -1.015625 C 3.4375 -1.179688 3.546875 -1.382812 3.546875 -1.625 L 3.546875 -2.1875 L 2.34375 -2.1875 C 2.09375 -2.1875 1.894531 -2.125 1.75 -2 C 1.613281 -1.882812 1.546875 -1.710938 1.546875 -1.484375 C 1.546875 -1.265625 1.617188 -1.09375 1.765625 -0.96875 C 1.921875 -0.84375 2.132812 -0.78125 2.40625 -0.78125 Z M 2.40625 -0.78125 "/></g></g><g style="fill:#252b41;fill-opacity:1;"><g transform="translate(224.827517, 130.843408)"><path style="stroke:none" d="M 0.296875 -4.84375 L 1.4375 -4.84375 L 2.46875 -1.703125 C 2.507812 -1.585938 2.539062 -1.472656 2.5625 -1.359375 C 2.582031 -1.253906 2.601562 -1.160156 2.625 -1.078125 C 2.632812 -0.984375 2.640625 -0.890625 2.640625 -0.796875 L 2.703125 -0.796875 C 2.703125 -0.890625 2.707031 -0.984375 2.71875 -1.078125 C 2.726562 -1.160156 2.742188 -1.253906 2.765625 -1.359375 C 2.785156 -1.472656 2.816406 -1.585938 2.859375 -1.703125 L 3.84375 -4.84375 L 4.984375 -4.84375 L 3.296875 0 L 2.015625 0 Z M 0.296875 -4.84375 "/></g></g><g style="fill:#252b41;fill-opacity:1;"><g transform="translate(230.118228, 130.843408)"><path style="stroke:none" d="M 0.734375 -1 L 2.46875 -1 L 2.46875 -3.84375 L 0.953125 -3.84375 L 0.953125 -4.84375 L 3.53125 -4.84375 L 3.53125 -1 L 4.921875 -1 L 4.921875 0 L 0.734375 0 Z M 2.15625 -6.15625 C 2.15625 -6.332031 2.210938 -6.472656 2.328125 -6.578125 C 2.441406 -6.679688 2.59375 -6.734375 2.78125 -6.734375 L 3 -6.734375 C 3.1875 -6.734375 3.335938 -6.679688 3.453125 -6.578125 C 3.566406 -6.472656 3.625 -6.332031 3.625 -6.15625 C 3.625 -5.976562 3.566406 -5.835938 3.453125 -5.734375 C 3.335938 -5.628906 3.1875 -5.578125 3 -5.578125 L 2.78125 -5.578125 C 2.59375 -5.578125 2.441406 -5.628906 2.328125 -5.734375 C 2.210938 -5.835938 2.15625 -5.976562 2.15625 -6.15625 Z M 2.15625 -6.15625 "/></g></g><g style="fill:#252b41;fill-opacity:1;"><g transform="translate(235.408939, 130.843408)"><path style="stroke:none" d="M 0.515625 -3.0625 C 0.515625 -3.34375 0.550781 -3.597656 0.625 -3.828125 C 0.707031 -4.054688 0.820312 -4.253906 0.96875 -4.421875 C 1.113281 -4.585938 1.289062 -4.710938 1.5 -4.796875 C 1.707031 -4.890625 1.9375 -4.9375 2.1875 -4.9375 C 2.550781 -4.9375 2.847656 -4.847656 3.078125 -4.671875 C 3.316406 -4.503906 3.46875 -4.269531 3.53125 -3.96875 L 3.59375 -3.96875 L 3.59375 -4.84375 L 4.640625 -4.84375 L 4.640625 -0.296875 C 4.640625 -0.0234375 4.59375 0.210938 4.5 0.421875 C 4.40625 0.640625 4.269531 0.820312 4.09375 0.96875 C 3.914062 1.125 3.703125 1.242188 3.453125 1.328125 C 3.203125 1.410156 2.925781 1.453125 2.625 1.453125 L 1.328125 1.453125 L 1.328125 0.53125 L 2.625 0.53125 C 2.90625 0.53125 3.128906 0.457031 3.296875 0.3125 C 3.460938 0.164062 3.546875 -0.0351562 3.546875 -0.296875 L 3.546875 -0.390625 L 3.578125 -1.359375 L 3.53125 -1.359375 C 3.46875 -1.066406 3.316406 -0.832031 3.078125 -0.65625 C 2.835938 -0.476562 2.539062 -0.390625 2.1875 -0.390625 C 1.9375 -0.390625 1.707031 -0.429688 1.5 -0.515625 C 1.289062 -0.609375 1.113281 -0.738281 0.96875 -0.90625 C 0.820312 -1.070312 0.707031 -1.269531 0.625 -1.5 C 0.550781 -1.726562 0.515625 -1.988281 0.515625 -2.28125 Z M 1.625 -2.296875 C 1.625 -1.992188 1.707031 -1.757812 1.875 -1.59375 C 2.039062 -1.425781 2.273438 -1.34375 2.578125 -1.34375 C 2.867188 -1.34375 3.101562 -1.425781 3.28125 -1.59375 C 3.457031 -1.769531 3.546875 -2.003906 3.546875 -2.296875 L 3.546875 -3.03125 C 3.546875 -3.320312 3.457031 -3.550781 3.28125 -3.71875 C 3.101562 -3.894531 2.867188 -3.984375 2.578125 -3.984375 C 2.273438 -3.984375 2.039062 -3.894531 1.875 -3.71875 C 1.707031 -3.550781 1.625 -3.320312 1.625 -3.03125 Z M 1.625 -2.296875 "/></g></g><g style="fill:#252b41;fill-opacity:1;"><g transform="translate(240.699649, 130.843408)"><path style="stroke:none" d="M 0.453125 -1.359375 C 0.453125 -1.597656 0.492188 -1.8125 0.578125 -2 C 0.671875 -2.195312 0.796875 -2.363281 0.953125 -2.5 C 1.117188 -2.632812 1.316406 -2.738281 1.546875 -2.8125 C 1.785156 -2.882812 2.046875 -2.921875 2.328125 -2.921875 L 3.546875 -2.921875 L 3.546875 -3.328125 C 3.546875 -3.554688 3.460938 -3.734375 3.296875 -3.859375 C 3.128906 -3.992188 2.898438 -4.0625 2.609375 -4.0625 C 2.367188 -4.0625 2.164062 -4.015625 2 -3.921875 C 1.832031 -3.835938 1.726562 -3.71875 1.6875 -3.5625 L 0.59375 -3.5625 C 0.675781 -3.988281 0.894531 -4.320312 1.25 -4.5625 C 1.601562 -4.8125 2.054688 -4.9375 2.609375 -4.9375 C 2.921875 -4.9375 3.203125 -4.898438 3.453125 -4.828125 C 3.703125 -4.753906 3.914062 -4.644531 4.09375 -4.5 C 4.269531 -4.363281 4.40625 -4.195312 4.5 -4 C 4.601562 -3.800781 4.65625 -3.582031 4.65625 -3.34375 L 4.65625 0 L 3.609375 0 L 3.609375 -0.953125 L 3.546875 -0.953125 C 3.484375 -0.628906 3.316406 -0.375 3.046875 -0.1875 C 2.773438 0 2.4375 0.09375 2.03125 0.09375 C 1.539062 0.09375 1.15625 -0.0351562 0.875 -0.296875 C 0.59375 -0.566406 0.453125 -0.921875 0.453125 -1.359375 Z M 2.40625 -0.78125 C 2.738281 -0.78125 3.007812 -0.859375 3.21875 -1.015625 C 3.4375 -1.179688 3.546875 -1.382812 3.546875 -1.625 L 3.546875 -2.1875 L 2.34375 -2.1875 C 2.09375 -2.1875 1.894531 -2.125 1.75 -2 C 1.613281 -1.882812 1.546875 -1.710938 1.546875 -1.484375 C 1.546875 -1.265625 1.617188 -1.09375 1.765625 -0.96875 C 1.921875 -0.84375 2.132812 -0.78125 2.40625 -0.78125 Z M 2.40625 -0.78125 "/></g></g><g style="fill:#252b41;fill-opacity:1;"><g transform="translate(245.99036, 130.843408)"><path style="stroke:none" d="M 0.390625 -4.84375 L 1.734375 -4.84375 L 1.734375 -6.34375 L 2.84375 -6.34375 L 2.84375 -4.84375 L 4.671875 -4.84375 L 4.671875 -3.84375 L 2.84375 -3.84375 L 2.84375 -1.5 C 2.84375 -1.34375 2.882812 -1.21875 2.96875 -1.125 C 3.0625 -1.039062 3.191406 -1 3.359375 -1 L 4.59375 -1 L 4.59375 0 L 3.28125 0 C 2.800781 0 2.421875 -0.132812 2.140625 -0.40625 C 1.867188 -0.675781 1.734375 -1.039062 1.734375 -1.5 L 1.734375 -3.84375 L 0.390625 -3.84375 Z M 0.390625 -4.84375 "/></g></g><g style="fill:#252b41;fill-opacity:1;"><g transform="translate(251.281071, 130.843408)"><path style="stroke:none" d="M 0.734375 -1 L 2.46875 -1 L 2.46875 -3.84375 L 0.953125 -3.84375 L 0.953125 -4.84375 L 3.53125 -4.84375 L 3.53125 -1 L 4.921875 -1 L 4.921875 0 L 0.734375 0 Z M 2.15625 -6.15625 C 2.15625 -6.332031 2.210938 -6.472656 2.328125 -6.578125 C 2.441406 -6.679688 2.59375 -6.734375 2.78125 -6.734375 L 3 -6.734375 C 3.1875 -6.734375 3.335938 -6.679688 3.453125 -6.578125 C 3.566406 -6.472656 3.625 -6.332031 3.625 -6.15625 C 3.625 -5.976562 3.566406 -5.835938 3.453125 -5.734375 C 3.335938 -5.628906 3.1875 -5.578125 3 -5.578125 L 2.78125 -5.578125 C 2.59375 -5.578125 2.441406 -5.628906 2.328125 -5.734375 C 2.210938 -5.835938 2.15625 -5.976562 2.15625 -6.15625 Z M 2.15625 -6.15625 "/></g></g><g style="fill:#252b41;fill-opacity:1;"><g transform="translate(256.571782, 130.843408)"><path style="stroke:none" d="M 0.640625 0 L 0.640625 -4.84375 L 1.6875 -4.84375 L 1.6875 -4.015625 L 1.765625 -4.015625 C 1.816406 -4.304688 1.953125 -4.53125 2.171875 -4.6875 C 2.398438 -4.851562 2.691406 -4.9375 3.046875 -4.9375 C 3.523438 -4.9375 3.910156 -4.773438 4.203125 -4.453125 C 4.492188 -4.140625 4.640625 -3.710938 4.640625 -3.171875 L 4.640625 0 L 3.53125 0 L 3.53125 -3.046875 C 3.53125 -3.335938 3.453125 -3.566406 3.296875 -3.734375 C 3.140625 -3.898438 2.921875 -3.984375 2.640625 -3.984375 C 2.359375 -3.984375 2.132812 -3.894531 1.96875 -3.71875 C 1.8125 -3.550781 1.734375 -3.316406 1.734375 -3.015625 L 1.734375 0 Z M 0.640625 0 "/></g></g><g style="fill:#252b41;fill-opacity:1;"><g transform="translate(261.862493, 130.843408)"><path style="stroke:none" d="M 0.515625 -3.0625 C 0.515625 -3.34375 0.550781 -3.597656 0.625 -3.828125 C 0.707031 -4.054688 0.820312 -4.253906 0.96875 -4.421875 C 1.113281 -4.585938 1.289062 -4.710938 1.5 -4.796875 C 1.707031 -4.890625 1.9375 -4.9375 2.1875 -4.9375 C 2.550781 -4.9375 2.847656 -4.847656 3.078125 -4.671875 C 3.316406 -4.503906 3.46875 -4.269531 3.53125 -3.96875 L 3.59375 -3.96875 L 3.59375 -4.84375 L 4.640625 -4.84375 L 4.640625 -0.296875 C 4.640625 -0.0234375 4.59375 0.210938 4.5 0.421875 C 4.40625 0.640625 4.269531 0.820312 4.09375 0.96875 C 3.914062 1.125 3.703125 1.242188 3.453125 1.328125 C 3.203125 1.410156 2.925781 1.453125 2.625 1.453125 L 1.328125 1.453125 L 1.328125 0.53125 L 2.625 0.53125 C 2.90625 0.53125 3.128906 0.457031 3.296875 0.3125 C 3.460938 0.164062 3.546875 -0.0351562 3.546875 -0.296875 L 3.546875 -0.390625 L 3.578125 -1.359375 L 3.53125 -1.359375 C 3.46875 -1.066406 3.316406 -0.832031 3.078125 -0.65625 C 2.835938 -0.476562 2.539062 -0.390625 2.1875 -0.390625 C 1.9375 -0.390625 1.707031 -0.429688 1.5 -0.515625 C 1.289062 -0.609375 1.113281 -0.738281 0.96875 -0.90625 C 0.820312 -1.070312 0.707031 -1.269531 0.625 -1.5 C 0.550781 -1.726562 0.515625 -1.988281 0.515625 -2.28125 Z M 1.625 -2.296875 C 1.625 -1.992188 1.707031 -1.757812 1.875 -1.59375 C 2.039062 -1.425781 2.273438 -1.34375 2.578125 -1.34375 C 2.867188 -1.34375 3.101562 -1.425781 3.28125 -1.59375 C 3.457031 -1.769531 3.546875 -2.003906 3.546875 -2.296875 L 3.546875 -3.03125 C 3.546875 -3.320312 3.457031 -3.550781 3.28125 -3.71875 C 3.101562 -3.894531 2.867188 -3.984375 2.578125 -3.984375 C 2.273438 -3.984375 2.039062 -3.894531 1.875 -3.71875 C 1.707031 -3.550781 1.625 -3.320312 1.625 -3.03125 Z M 1.625 -2.296875 "/></g></g><g style="fill:#252b41;fill-opacity:1;"><g transform="translate(267.153204, 130.843408)"><path style="stroke:none" d=""/></g></g><g style="fill:#252b41;fill-opacity:1;"><g transform="translate(272.443914, 130.843408)"><path style="stroke:none" d="M 0.453125 -1.359375 C 0.453125 -1.597656 0.492188 -1.8125 0.578125 -2 C 0.671875 -2.195312 0.796875 -2.363281 0.953125 -2.5 C 1.117188 -2.632812 1.316406 -2.738281 1.546875 -2.8125 C 1.785156 -2.882812 2.046875 -2.921875 2.328125 -2.921875 L 3.546875 -2.921875 L 3.546875 -3.328125 C 3.546875 -3.554688 3.460938 -3.734375 3.296875 -3.859375 C 3.128906 -3.992188 2.898438 -4.0625 2.609375 -4.0625 C 2.367188 -4.0625 2.164062 -4.015625 2 -3.921875 C 1.832031 -3.835938 1.726562 -3.71875 1.6875 -3.5625 L 0.59375 -3.5625 C 0.675781 -3.988281 0.894531 -4.320312 1.25 -4.5625 C 1.601562 -4.8125 2.054688 -4.9375 2.609375 -4.9375 C 2.921875 -4.9375 3.203125 -4.898438 3.453125 -4.828125 C 3.703125 -4.753906 3.914062 -4.644531 4.09375 -4.5 C 4.269531 -4.363281 4.40625 -4.195312 4.5 -4 C 4.601562 -3.800781 4.65625 -3.582031 4.65625 -3.34375 L 4.65625 0 L 3.609375 0 L 3.609375 -0.953125 L 3.546875 -0.953125 C 3.484375 -0.628906 3.316406 -0.375 3.046875 -0.1875 C 2.773438 0 2.4375 0.09375 2.03125 0.09375 C 1.539062 0.09375 1.15625 -0.0351562 0.875 -0.296875 C 0.59375 -0.566406 0.453125 -0.921875 0.453125 -1.359375 Z M 2.40625 -0.78125 C 2.738281 -0.78125 3.007812 -0.859375 3.21875 -1.015625 C 3.4375 -1.179688 3.546875 -1.382812 3.546875 -1.625 L 3.546875 -2.1875 L 2.34375 -2.1875 C 2.09375 -2.1875 1.894531 -2.125 1.75 -2 C 1.613281 -1.882812 1.546875 -1.710938 1.546875 -1.484375 C 1.546875 -1.265625 1.617188 -1.09375 1.765625 -0.96875 C 1.921875 -0.84375 2.132812 -0.78125 2.40625 -0.78125 Z M 2.40625 -0.78125 "/></g></g><g style="fill:#252b41;fill-opacity:1;"><g transform="translate(277.734625, 130.843408)"><path style="stroke:none" d="M 0.640625 0 L 0.640625 -4.84375 L 1.6875 -4.84375 L 1.6875 -4.015625 L 1.765625 -4.015625 C 1.816406 -4.304688 1.953125 -4.53125 2.171875 -4.6875 C 2.398438 -4.851562 2.691406 -4.9375 3.046875 -4.9375 C 3.523438 -4.9375 3.910156 -4.773438 4.203125 -4.453125 C 4.492188 -4.140625 4.640625 -3.710938 4.640625 -3.171875 L 4.640625 0 L 3.53125 0 L 3.53125 -3.046875 C 3.53125 -3.335938 3.453125 -3.566406 3.296875 -3.734375 C 3.140625 -3.898438 2.921875 -3.984375 2.640625 -3.984375 C 2.359375 -3.984375 2.132812 -3.894531 1.96875 -3.71875 C 1.8125 -3.550781 1.734375 -3.316406 1.734375 -3.015625 L 1.734375 0 Z M 0.640625 0 "/></g></g><g style="fill:#252b41;fill-opacity:1;"><g transform="translate(283.025336, 130.843408)"><path style="stroke:none" d="M 0.53125 -3.046875 C 0.53125 -3.335938 0.570312 -3.597656 0.65625 -3.828125 C 0.738281 -4.054688 0.851562 -4.253906 1 -4.421875 C 1.144531 -4.585938 1.316406 -4.710938 1.515625 -4.796875 C 1.722656 -4.890625 1.953125 -4.9375 2.203125 -4.9375 C 2.554688 -4.9375 2.847656 -4.851562 3.078125 -4.6875 C 3.304688 -4.519531 3.445312 -4.296875 3.5 -4.015625 L 3.59375 -4.015625 C 3.582031 -4.109375 3.570312 -4.207031 3.5625 -4.3125 C 3.550781 -4.394531 3.546875 -4.484375 3.546875 -4.578125 C 3.546875 -4.679688 3.546875 -4.769531 3.546875 -4.84375 L 3.546875 -6.4375 L 4.640625 -6.4375 L 4.640625 0 L 3.59375 0 L 3.59375 -0.84375 L 3.5 -0.84375 C 3.445312 -0.550781 3.304688 -0.320312 3.078125 -0.15625 C 2.847656 0.0078125 2.554688 0.09375 2.203125 0.09375 C 1.953125 0.09375 1.722656 0.0507812 1.515625 -0.03125 C 1.316406 -0.125 1.144531 -0.253906 1 -0.421875 C 0.851562 -0.585938 0.738281 -0.789062 0.65625 -1.03125 C 0.570312 -1.269531 0.53125 -1.535156 0.53125 -1.828125 Z M 2.59375 -0.875 C 2.882812 -0.875 3.113281 -0.960938 3.28125 -1.140625 C 3.457031 -1.316406 3.546875 -1.546875 3.546875 -1.828125 L 3.546875 -3.015625 C 3.546875 -3.304688 3.457031 -3.539062 3.28125 -3.71875 C 3.101562 -3.894531 2.875 -3.984375 2.59375 -3.984375 C 2.300781 -3.984375 2.066406 -3.894531 1.890625 -3.71875 C 1.722656 -3.550781 1.640625 -3.316406 1.640625 -3.015625 L 1.640625 -1.859375 C 1.640625 -1.554688 1.722656 -1.316406 1.890625 -1.140625 C 2.066406 -0.960938 2.300781 -0.875 2.59375 -0.875 Z M 2.59375 -0.875 "/></g></g><g style="fill:#252b41;fill-opacity:1;"><g transform="translate(134.885433, 142.600448)"><path style="stroke:none" d="M 0.46875 -3.359375 L 0.46875 -4.359375 L 1.8125 -4.359375 L 1.8125 -5.046875 C 1.8125 -5.472656 1.945312 -5.8125 2.21875 -6.0625 C 2.5 -6.3125 2.875 -6.4375 3.34375 -6.4375 L 4.765625 -6.4375 L 4.765625 -5.46875 L 3.375 -5.46875 C 3.226562 -5.46875 3.113281 -5.425781 3.03125 -5.34375 C 2.957031 -5.257812 2.921875 -5.148438 2.921875 -5.015625 L 2.921875 -4.359375 L 4.765625 -4.359375 L 4.765625 -3.359375 L 2.921875 -3.359375 L 2.921875 0 L 1.8125 0 L 1.8125 -3.359375 Z M 0.46875 -3.359375 "/></g></g><g style="fill:#252b41;fill-opacity:1;"><g transform="translate(140.176144, 142.600448)"><path style="stroke:none" d="M 0.734375 -1 L 2.46875 -1 L 2.46875 -3.84375 L 0.953125 -3.84375 L 0.953125 -4.84375 L 3.53125 -4.84375 L 3.53125 -1 L 4.921875 -1 L 4.921875 0 L 0.734375 0 Z M 2.15625 -6.15625 C 2.15625 -6.332031 2.210938 -6.472656 2.328125 -6.578125 C 2.441406 -6.679688 2.59375 -6.734375 2.78125 -6.734375 L 3 -6.734375 C 3.1875 -6.734375 3.335938 -6.679688 3.453125 -6.578125 C 3.566406 -6.472656 3.625 -6.332031 3.625 -6.15625 C 3.625 -5.976562 3.566406 -5.835938 3.453125 -5.734375 C 3.335938 -5.628906 3.1875 -5.578125 3 -5.578125 L 2.78125 -5.578125 C 2.59375 -5.578125 2.441406 -5.628906 2.328125 -5.734375 C 2.210938 -5.835938 2.15625 -5.976562 2.15625 -6.15625 Z M 2.15625 -6.15625 "/></g></g><g style="fill:#252b41;fill-opacity:1;"><g transform="translate(145.466855, 142.600448)"><path style="stroke:none" d="M 0.640625 0 L 0.640625 -4.84375 L 1.6875 -4.84375 L 1.6875 -4.015625 L 1.765625 -4.015625 C 1.816406 -4.304688 1.953125 -4.53125 2.171875 -4.6875 C 2.398438 -4.851562 2.691406 -4.9375 3.046875 -4.9375 C 3.523438 -4.9375 3.910156 -4.773438 4.203125 -4.453125 C 4.492188 -4.140625 4.640625 -3.710938 4.640625 -3.171875 L 4.640625 0 L 3.53125 0 L 3.53125 -3.046875 C 3.53125 -3.335938 3.453125 -3.566406 3.296875 -3.734375 C 3.140625 -3.898438 2.921875 -3.984375 2.640625 -3.984375 C 2.359375 -3.984375 2.132812 -3.894531 1.96875 -3.71875 C 1.8125 -3.550781 1.734375 -3.316406 1.734375 -3.015625 L 1.734375 0 Z M 0.640625 0 "/></g></g><g style="fill:#252b41;fill-opacity:1;"><g transform="translate(150.757566, 142.600448)"><path style="stroke:none" d="M 0.53125 -3.046875 C 0.53125 -3.335938 0.570312 -3.597656 0.65625 -3.828125 C 0.738281 -4.054688 0.851562 -4.253906 1 -4.421875 C 1.144531 -4.585938 1.316406 -4.710938 1.515625 -4.796875 C 1.722656 -4.890625 1.953125 -4.9375 2.203125 -4.9375 C 2.554688 -4.9375 2.847656 -4.851562 3.078125 -4.6875 C 3.304688 -4.519531 3.445312 -4.296875 3.5 -4.015625 L 3.59375 -4.015625 C 3.582031 -4.109375 3.570312 -4.207031 3.5625 -4.3125 C 3.550781 -4.394531 3.546875 -4.484375 3.546875 -4.578125 C 3.546875 -4.679688 3.546875 -4.769531 3.546875 -4.84375 L 3.546875 -6.4375 L 4.640625 -6.4375 L 4.640625 0 L 3.59375 0 L 3.59375 -0.84375 L 3.5 -0.84375 C 3.445312 -0.550781 3.304688 -0.320312 3.078125 -0.15625 C 2.847656 0.0078125 2.554688 0.09375 2.203125 0.09375 C 1.953125 0.09375 1.722656 0.0507812 1.515625 -0.03125 C 1.316406 -0.125 1.144531 -0.253906 1 -0.421875 C 0.851562 -0.585938 0.738281 -0.789062 0.65625 -1.03125 C 0.570312 -1.269531 0.53125 -1.535156 0.53125 -1.828125 Z M 2.59375 -0.875 C 2.882812 -0.875 3.113281 -0.960938 3.28125 -1.140625 C 3.457031 -1.316406 3.546875 -1.546875 3.546875 -1.828125 L 3.546875 -3.015625 C 3.546875 -3.304688 3.457031 -3.539062 3.28125 -3.71875 C 3.101562 -3.894531 2.875 -3.984375 2.59375 -3.984375 C 2.300781 -3.984375 2.066406 -3.894531 1.890625 -3.71875 C 1.722656 -3.550781 1.640625 -3.316406 1.640625 -3.015625 L 1.640625 -1.859375 C 1.640625 -1.554688 1.722656 -1.316406 1.890625 -1.140625 C 2.066406 -0.960938 2.300781 -0.875 2.59375 -0.875 Z M 2.59375 -0.875 "/></g></g><g style="fill:#252b41;fill-opacity:1;"><g transform="translate(156.048277, 142.600448)"><path style="stroke:none" d="M 0.734375 -1 L 2.46875 -1 L 2.46875 -3.84375 L 0.953125 -3.84375 L 0.953125 -4.84375 L 3.53125 -4.84375 L 3.53125 -1 L 4.921875 -1 L 4.921875 0 L 0.734375 0 Z M 2.15625 -6.15625 C 2.15625 -6.332031 2.210938 -6.472656 2.328125 -6.578125 C 2.441406 -6.679688 2.59375 -6.734375 2.78125 -6.734375 L 3 -6.734375 C 3.1875 -6.734375 3.335938 -6.679688 3.453125 -6.578125 C 3.566406 -6.472656 3.625 -6.332031 3.625 -6.15625 C 3.625 -5.976562 3.566406 -5.835938 3.453125 -5.734375 C 3.335938 -5.628906 3.1875 -5.578125 3 -5.578125 L 2.78125 -5.578125 C 2.59375 -5.578125 2.441406 -5.628906 2.328125 -5.734375 C 2.210938 -5.835938 2.15625 -5.976562 2.15625 -6.15625 Z M 2.15625 -6.15625 "/></g></g><g style="fill:#252b41;fill-opacity:1;"><g transform="translate(161.338987, 142.600448)"><path style="stroke:none" d="M 0.640625 0 L 0.640625 -4.84375 L 1.6875 -4.84375 L 1.6875 -4.015625 L 1.765625 -4.015625 C 1.816406 -4.304688 1.953125 -4.53125 2.171875 -4.6875 C 2.398438 -4.851562 2.691406 -4.9375 3.046875 -4.9375 C 3.523438 -4.9375 3.910156 -4.773438 4.203125 -4.453125 C 4.492188 -4.140625 4.640625 -3.710938 4.640625 -3.171875 L 4.640625 0 L 3.53125 0 L 3.53125 -3.046875 C 3.53125 -3.335938 3.453125 -3.566406 3.296875 -3.734375 C 3.140625 -3.898438 2.921875 -3.984375 2.640625 -3.984375 C 2.359375 -3.984375 2.132812 -3.894531 1.96875 -3.71875 C 1.8125 -3.550781 1.734375 -3.316406 1.734375 -3.015625 L 1.734375 0 Z M 0.640625 0 "/></g></g><g style="fill:#252b41;fill-opacity:1;"><g transform="translate(166.629698, 142.600448)"><path style="stroke:none" d="M 0.515625 -3.0625 C 0.515625 -3.34375 0.550781 -3.597656 0.625 -3.828125 C 0.707031 -4.054688 0.820312 -4.253906 0.96875 -4.421875 C 1.113281 -4.585938 1.289062 -4.710938 1.5 -4.796875 C 1.707031 -4.890625 1.9375 -4.9375 2.1875 -4.9375 C 2.550781 -4.9375 2.847656 -4.847656 3.078125 -4.671875 C 3.316406 -4.503906 3.46875 -4.269531 3.53125 -3.96875 L 3.59375 -3.96875 L 3.59375 -4.84375 L 4.640625 -4.84375 L 4.640625 -0.296875 C 4.640625 -0.0234375 4.59375 0.210938 4.5 0.421875 C 4.40625 0.640625 4.269531 0.820312 4.09375 0.96875 C 3.914062 1.125 3.703125 1.242188 3.453125 1.328125 C 3.203125 1.410156 2.925781 1.453125 2.625 1.453125 L 1.328125 1.453125 L 1.328125 0.53125 L 2.625 0.53125 C 2.90625 0.53125 3.128906 0.457031 3.296875 0.3125 C 3.460938 0.164062 3.546875 -0.0351562 3.546875 -0.296875 L 3.546875 -0.390625 L 3.578125 -1.359375 L 3.53125 -1.359375 C 3.46875 -1.066406 3.316406 -0.832031 3.078125 -0.65625 C 2.835938 -0.476562 2.539062 -0.390625 2.1875 -0.390625 C 1.9375 -0.390625 1.707031 -0.429688 1.5 -0.515625 C 1.289062 -0.609375 1.113281 -0.738281 0.96875 -0.90625 C 0.820312 -1.070312 0.707031 -1.269531 0.625 -1.5 C 0.550781 -1.726562 0.515625 -1.988281 0.515625 -2.28125 Z M 1.625 -2.296875 C 1.625 -1.992188 1.707031 -1.757812 1.875 -1.59375 C 2.039062 -1.425781 2.273438 -1.34375 2.578125 -1.34375 C 2.867188 -1.34375 3.101562 -1.425781 3.28125 -1.59375 C 3.457031 -1.769531 3.546875 -2.003906 3.546875 -2.296875 L 3.546875 -3.03125 C 3.546875 -3.320312 3.457031 -3.550781 3.28125 -3.71875 C 3.101562 -3.894531 2.867188 -3.984375 2.578125 -3.984375 C 2.273438 -3.984375 2.039062 -3.894531 1.875 -3.71875 C 1.707031 -3.550781 1.625 -3.320312 1.625 -3.03125 Z M 1.625 -2.296875 "/></g></g><g style="fill:#252b41;fill-opacity:1;"><g transform="translate(171.920409, 142.600448)"><path style="stroke:none" d=""/></g></g><g style="fill:#252b41;fill-opacity:1;"><g transform="translate(177.21112, 142.600448)"><path style="stroke:none" d="M 2.453125 0.09375 C 1.890625 0.09375 1.4375 -0.0195312 1.09375 -0.25 C 0.757812 -0.488281 0.566406 -0.820312 0.515625 -1.25 L 1.640625 -1.25 C 1.671875 -1.09375 1.757812 -0.972656 1.90625 -0.890625 C 2.050781 -0.804688 2.234375 -0.765625 2.453125 -0.765625 L 2.8125 -0.765625 C 3.082031 -0.765625 3.289062 -0.816406 3.4375 -0.921875 C 3.59375 -1.023438 3.671875 -1.171875 3.671875 -1.359375 C 3.671875 -1.679688 3.421875 -1.878906 2.921875 -1.953125 L 2.234375 -2.03125 C 1.679688 -2.101562 1.269531 -2.253906 1 -2.484375 C 0.738281 -2.722656 0.609375 -3.0625 0.609375 -3.5 C 0.609375 -3.957031 0.769531 -4.3125 1.09375 -4.5625 C 1.414062 -4.8125 1.875 -4.9375 2.46875 -4.9375 L 2.84375 -4.9375 C 3.375 -4.9375 3.800781 -4.820312 4.125 -4.59375 C 4.457031 -4.363281 4.648438 -4.046875 4.703125 -3.640625 L 3.578125 -3.640625 C 3.546875 -3.773438 3.460938 -3.882812 3.328125 -3.96875 C 3.203125 -4.050781 3.039062 -4.09375 2.84375 -4.09375 L 2.46875 -4.09375 C 1.957031 -4.09375 1.703125 -3.910156 1.703125 -3.546875 C 1.703125 -3.234375 1.921875 -3.050781 2.359375 -3 L 3.0625 -2.90625 C 3.644531 -2.832031 4.070312 -2.671875 4.34375 -2.421875 C 4.625 -2.179688 4.765625 -1.84375 4.765625 -1.40625 C 4.765625 -0.925781 4.59375 -0.554688 4.25 -0.296875 C 3.914062 -0.0351562 3.4375 0.09375 2.8125 0.09375 Z M 2.453125 0.09375 "/></g></g><g style="fill:#252b41;fill-opacity:1;"><g transform="translate(182.501831, 142.600448)"><path style="stroke:none" d="M 0.390625 -4.84375 L 1.734375 -4.84375 L 1.734375 -6.34375 L 2.84375 -6.34375 L 2.84375 -4.84375 L 4.671875 -4.84375 L 4.671875 -3.84375 L 2.84375 -3.84375 L 2.84375 -1.5 C 2.84375 -1.34375 2.882812 -1.21875 2.96875 -1.125 C 3.0625 -1.039062 3.191406 -1 3.359375 -1 L 4.59375 -1 L 4.59375 0 L 3.28125 0 C 2.800781 0 2.421875 -0.132812 2.140625 -0.40625 C 1.867188 -0.675781 1.734375 -1.039062 1.734375 -1.5 L 1.734375 -3.84375 L 0.390625 -3.84375 Z M 0.390625 -4.84375 "/></g></g><g style="fill:#252b41;fill-opacity:1;"><g transform="translate(187.792541, 142.600448)"><path style="stroke:none" d="M 0.84375 -4.84375 L 1.875 -4.84375 L 1.875 -4.015625 L 1.953125 -4.015625 C 2.015625 -4.304688 2.160156 -4.53125 2.390625 -4.6875 C 2.628906 -4.851562 2.929688 -4.9375 3.296875 -4.9375 C 3.816406 -4.9375 4.222656 -4.773438 4.515625 -4.453125 C 4.816406 -4.128906 4.96875 -3.679688 4.96875 -3.109375 L 4.96875 -2.765625 L 3.8125 -2.765625 L 3.8125 -3.015625 C 3.8125 -3.328125 3.722656 -3.566406 3.546875 -3.734375 C 3.378906 -3.910156 3.144531 -4 2.84375 -4 C 2.5625 -4 2.335938 -3.910156 2.171875 -3.734375 C 2.015625 -3.554688 1.9375 -3.316406 1.9375 -3.015625 L 1.9375 0 L 0.84375 0 Z M 0.84375 -4.84375 "/></g></g><g style="fill:#252b41;fill-opacity:1;"><g transform="translate(193.083252, 142.600448)"><path style="stroke:none" d="M 0.734375 -1 L 2.46875 -1 L 2.46875 -3.84375 L 0.953125 -3.84375 L 0.953125 -4.84375 L 3.53125 -4.84375 L 3.53125 -1 L 4.921875 -1 L 4.921875 0 L 0.734375 0 Z M 2.15625 -6.15625 C 2.15625 -6.332031 2.210938 -6.472656 2.328125 -6.578125 C 2.441406 -6.679688 2.59375 -6.734375 2.78125 -6.734375 L 3 -6.734375 C 3.1875 -6.734375 3.335938 -6.679688 3.453125 -6.578125 C 3.566406 -6.472656 3.625 -6.332031 3.625 -6.15625 C 3.625 -5.976562 3.566406 -5.835938 3.453125 -5.734375 C 3.335938 -5.628906 3.1875 -5.578125 3 -5.578125 L 2.78125 -5.578125 C 2.59375 -5.578125 2.441406 -5.628906 2.328125 -5.734375 C 2.210938 -5.835938 2.15625 -5.976562 2.15625 -6.15625 Z M 2.15625 -6.15625 "/></g></g><g style="fill:#252b41;fill-opacity:1;"><g transform="translate(198.373963, 142.600448)"><path style="stroke:none" d="M 0.640625 0 L 0.640625 -4.84375 L 1.6875 -4.84375 L 1.6875 -4.015625 L 1.765625 -4.015625 C 1.816406 -4.304688 1.953125 -4.53125 2.171875 -4.6875 C 2.398438 -4.851562 2.691406 -4.9375 3.046875 -4.9375 C 3.523438 -4.9375 3.910156 -4.773438 4.203125 -4.453125 C 4.492188 -4.140625 4.640625 -3.710938 4.640625 -3.171875 L 4.640625 0 L 3.53125 0 L 3.53125 -3.046875 C 3.53125 -3.335938 3.453125 -3.566406 3.296875 -3.734375 C 3.140625 -3.898438 2.921875 -3.984375 2.640625 -3.984375 C 2.359375 -3.984375 2.132812 -3.894531 1.96875 -3.71875 C 1.8125 -3.550781 1.734375 -3.316406 1.734375 -3.015625 L 1.734375 0 Z M 0.640625 0 "/></g></g><g style="fill:#252b41;fill-opacity:1;"><g transform="translate(203.664674, 142.600448)"><path style="stroke:none" d="M 0.515625 -3.0625 C 0.515625 -3.34375 0.550781 -3.597656 0.625 -3.828125 C 0.707031 -4.054688 0.820312 -4.253906 0.96875 -4.421875 C 1.113281 -4.585938 1.289062 -4.710938 1.5 -4.796875 C 1.707031 -4.890625 1.9375 -4.9375 2.1875 -4.9375 C 2.550781 -4.9375 2.847656 -4.847656 3.078125 -4.671875 C 3.316406 -4.503906 3.46875 -4.269531 3.53125 -3.96875 L 3.59375 -3.96875 L 3.59375 -4.84375 L 4.640625 -4.84375 L 4.640625 -0.296875 C 4.640625 -0.0234375 4.59375 0.210938 4.5 0.421875 C 4.40625 0.640625 4.269531 0.820312 4.09375 0.96875 C 3.914062 1.125 3.703125 1.242188 3.453125 1.328125 C 3.203125 1.410156 2.925781 1.453125 2.625 1.453125 L 1.328125 1.453125 L 1.328125 0.53125 L 2.625 0.53125 C 2.90625 0.53125 3.128906 0.457031 3.296875 0.3125 C 3.460938 0.164062 3.546875 -0.0351562 3.546875 -0.296875 L 3.546875 -0.390625 L 3.578125 -1.359375 L 3.53125 -1.359375 C 3.46875 -1.066406 3.316406 -0.832031 3.078125 -0.65625 C 2.835938 -0.476562 2.539062 -0.390625 2.1875 -0.390625 C 1.9375 -0.390625 1.707031 -0.429688 1.5 -0.515625 C 1.289062 -0.609375 1.113281 -0.738281 0.96875 -0.90625 C 0.820312 -1.070312 0.707031 -1.269531 0.625 -1.5 C 0.550781 -1.726562 0.515625 -1.988281 0.515625 -2.28125 Z M 1.625 -2.296875 C 1.625 -1.992188 1.707031 -1.757812 1.875 -1.59375 C 2.039062 -1.425781 2.273438 -1.34375 2.578125 -1.34375 C 2.867188 -1.34375 3.101562 -1.425781 3.28125 -1.59375 C 3.457031 -1.769531 3.546875 -2.003906 3.546875 -2.296875 L 3.546875 -3.03125 C 3.546875 -3.320312 3.457031 -3.550781 3.28125 -3.71875 C 3.101562 -3.894531 2.867188 -3.984375 2.578125 -3.984375 C 2.273438 -3.984375 2.039062 -3.894531 1.875 -3.71875 C 1.707031 -3.550781 1.625 -3.320312 1.625 -3.03125 Z M 1.625 -2.296875 "/></g></g><g style="fill:#252b41;fill-opacity:1;"><g transform="translate(208.955385, 142.600448)"><path style="stroke:none" d="M 2.453125 0.09375 C 1.890625 0.09375 1.4375 -0.0195312 1.09375 -0.25 C 0.757812 -0.488281 0.566406 -0.820312 0.515625 -1.25 L 1.640625 -1.25 C 1.671875 -1.09375 1.757812 -0.972656 1.90625 -0.890625 C 2.050781 -0.804688 2.234375 -0.765625 2.453125 -0.765625 L 2.8125 -0.765625 C 3.082031 -0.765625 3.289062 -0.816406 3.4375 -0.921875 C 3.59375 -1.023438 3.671875 -1.171875 3.671875 -1.359375 C 3.671875 -1.679688 3.421875 -1.878906 2.921875 -1.953125 L 2.234375 -2.03125 C 1.679688 -2.101562 1.269531 -2.253906 1 -2.484375 C 0.738281 -2.722656 0.609375 -3.0625 0.609375 -3.5 C 0.609375 -3.957031 0.769531 -4.3125 1.09375 -4.5625 C 1.414062 -4.8125 1.875 -4.9375 2.46875 -4.9375 L 2.84375 -4.9375 C 3.375 -4.9375 3.800781 -4.820312 4.125 -4.59375 C 4.457031 -4.363281 4.648438 -4.046875 4.703125 -3.640625 L 3.578125 -3.640625 C 3.546875 -3.773438 3.460938 -3.882812 3.328125 -3.96875 C 3.203125 -4.050781 3.039062 -4.09375 2.84375 -4.09375 L 2.46875 -4.09375 C 1.957031 -4.09375 1.703125 -3.910156 1.703125 -3.546875 C 1.703125 -3.234375 1.921875 -3.050781 2.359375 -3 L 3.0625 -2.90625 C 3.644531 -2.832031 4.070312 -2.671875 4.34375 -2.421875 C 4.625 -2.179688 4.765625 -1.84375 4.765625 -1.40625 C 4.765625 -0.925781 4.59375 -0.554688 4.25 -0.296875 C 3.914062 -0.0351562 3.4375 0.09375 2.8125 0.09375 Z M 2.453125 0.09375 "/></g></g><g style="fill:#252b41;fill-opacity:1;"><g transform="translate(214.246095, 142.600448)"><path style="stroke:none" d=""/></g></g><g style="fill:#252b41;fill-opacity:1;"><g transform="translate(219.536806, 142.600448)"><path style="stroke:none" d="M 0.734375 -1 L 2.46875 -1 L 2.46875 -3.84375 L 0.953125 -3.84375 L 0.953125 -4.84375 L 3.53125 -4.84375 L 3.53125 -1 L 4.921875 -1 L 4.921875 0 L 0.734375 0 Z M 2.15625 -6.15625 C 2.15625 -6.332031 2.210938 -6.472656 2.328125 -6.578125 C 2.441406 -6.679688 2.59375 -6.734375 2.78125 -6.734375 L 3 -6.734375 C 3.1875 -6.734375 3.335938 -6.679688 3.453125 -6.578125 C 3.566406 -6.472656 3.625 -6.332031 3.625 -6.15625 C 3.625 -5.976562 3.566406 -5.835938 3.453125 -5.734375 C 3.335938 -5.628906 3.1875 -5.578125 3 -5.578125 L 2.78125 -5.578125 C 2.59375 -5.578125 2.441406 -5.628906 2.328125 -5.734375 C 2.210938 -5.835938 2.15625 -5.976562 2.15625 -6.15625 Z M 2.15625 -6.15625 "/></g></g><g style="fill:#252b41;fill-opacity:1;"><g transform="translate(224.827517, 142.600448)"><path style="stroke:none" d="M 0.640625 0 L 0.640625 -4.84375 L 1.6875 -4.84375 L 1.6875 -4.015625 L 1.765625 -4.015625 C 1.816406 -4.304688 1.953125 -4.53125 2.171875 -4.6875 C 2.398438 -4.851562 2.691406 -4.9375 3.046875 -4.9375 C 3.523438 -4.9375 3.910156 -4.773438 4.203125 -4.453125 C 4.492188 -4.140625 4.640625 -3.710938 4.640625 -3.171875 L 4.640625 0 L 3.53125 0 L 3.53125 -3.046875 C 3.53125 -3.335938 3.453125 -3.566406 3.296875 -3.734375 C 3.140625 -3.898438 2.921875 -3.984375 2.640625 -3.984375 C 2.359375 -3.984375 2.132812 -3.894531 1.96875 -3.71875 C 1.8125 -3.550781 1.734375 -3.316406 1.734375 -3.015625 L 1.734375 0 Z M 0.640625 0 "/></g></g><g style="fill:#252b41;fill-opacity:1;"><g transform="translate(230.118228, 142.600448)"><path style="stroke:none" d=""/></g></g><g style="fill:#252b41;fill-opacity:1;"><g transform="translate(235.408939, 142.600448)"><path style="stroke:none" d="M 0.46875 -3.359375 L 0.46875 -4.359375 L 1.8125 -4.359375 L 1.8125 -5.046875 C 1.8125 -5.472656 1.945312 -5.8125 2.21875 -6.0625 C 2.5 -6.3125 2.875 -6.4375 3.34375 -6.4375 L 4.765625 -6.4375 L 4.765625 -5.46875 L 3.375 -5.46875 C 3.226562 -5.46875 3.113281 -5.425781 3.03125 -5.34375 C 2.957031 -5.257812 2.921875 -5.148438 2.921875 -5.015625 L 2.921875 -4.359375 L 4.765625 -4.359375 L 4.765625 -3.359375 L 2.921875 -3.359375 L 2.921875 0 L 1.8125 0 L 1.8125 -3.359375 Z M 0.46875 -3.359375 "/></g></g><g style="fill:#252b41;fill-opacity:1;"><g transform="translate(240.699649, 142.600448)"><path style="stroke:none" d="M 0.734375 -1 L 2.46875 -1 L 2.46875 -3.84375 L 0.953125 -3.84375 L 0.953125 -4.84375 L 3.53125 -4.84375 L 3.53125 -1 L 4.921875 -1 L 4.921875 0 L 0.734375 0 Z M 2.15625 -6.15625 C 2.15625 -6.332031 2.210938 -6.472656 2.328125 -6.578125 C 2.441406 -6.679688 2.59375 -6.734375 2.78125 -6.734375 L 3 -6.734375 C 3.1875 -6.734375 3.335938 -6.679688 3.453125 -6.578125 C 3.566406 -6.472656 3.625 -6.332031 3.625 -6.15625 C 3.625 -5.976562 3.566406 -5.835938 3.453125 -5.734375 C 3.335938 -5.628906 3.1875 -5.578125 3 -5.578125 L 2.78125 -5.578125 C 2.59375 -5.578125 2.441406 -5.628906 2.328125 -5.734375 C 2.210938 -5.835938 2.15625 -5.976562 2.15625 -6.15625 Z M 2.15625 -6.15625 "/></g></g><g style="fill:#252b41;fill-opacity:1;"><g transform="translate(245.99036, 142.600448)"><path style="stroke:none" d="M 2.921875 -6.4375 L 2.921875 -1.5625 C 2.921875 -1.382812 2.96875 -1.242188 3.0625 -1.140625 C 3.164062 -1.046875 3.304688 -1 3.484375 -1 L 4.921875 -1 L 4.921875 0 L 3.40625 0 C 2.90625 0 2.515625 -0.132812 2.234375 -0.40625 C 1.953125 -0.6875 1.8125 -1.070312 1.8125 -1.5625 L 1.8125 -5.4375 L 0.265625 -5.4375 L 0.265625 -6.4375 Z M 2.921875 -6.4375 "/></g></g><g style="fill:#252b41;fill-opacity:1;"><g transform="translate(251.281071, 142.600448)"><path style="stroke:none" d="M 2.640625 0.09375 C 2.328125 0.09375 2.039062 0.046875 1.78125 -0.046875 C 1.519531 -0.140625 1.296875 -0.265625 1.109375 -0.421875 C 0.929688 -0.585938 0.789062 -0.789062 0.6875 -1.03125 C 0.582031 -1.269531 0.53125 -1.53125 0.53125 -1.8125 L 0.53125 -3.046875 C 0.53125 -3.328125 0.582031 -3.582031 0.6875 -3.8125 C 0.789062 -4.050781 0.929688 -4.253906 1.109375 -4.421875 C 1.296875 -4.585938 1.519531 -4.710938 1.78125 -4.796875 C 2.039062 -4.890625 2.328125 -4.9375 2.640625 -4.9375 C 2.960938 -4.9375 3.25 -4.890625 3.5 -4.796875 C 3.757812 -4.703125 3.976562 -4.570312 4.15625 -4.40625 C 4.34375 -4.25 4.484375 -4.050781 4.578125 -3.8125 C 4.679688 -3.582031 4.734375 -3.320312 4.734375 -3.03125 L 4.734375 -2.15625 L 1.625 -2.15625 L 1.625 -1.828125 C 1.625 -1.503906 1.710938 -1.25 1.890625 -1.0625 C 2.078125 -0.882812 2.328125 -0.796875 2.640625 -0.796875 C 2.878906 -0.796875 3.082031 -0.832031 3.25 -0.90625 C 3.414062 -0.976562 3.535156 -1.085938 3.609375 -1.234375 L 4.703125 -1.234375 C 4.648438 -1.035156 4.5625 -0.851562 4.4375 -0.6875 C 4.3125 -0.519531 4.15625 -0.378906 3.96875 -0.265625 C 3.789062 -0.148438 3.585938 -0.0625 3.359375 0 C 3.140625 0.0625 2.898438 0.09375 2.640625 0.09375 Z M 3.65625 -2.890625 L 3.65625 -3.03125 C 3.65625 -3.351562 3.566406 -3.601562 3.390625 -3.78125 C 3.210938 -3.957031 2.960938 -4.046875 2.640625 -4.046875 C 2.328125 -4.046875 2.078125 -3.957031 1.890625 -3.78125 C 1.710938 -3.601562 1.625 -3.359375 1.625 -3.046875 L 1.625 -2.890625 Z M 3.65625 -2.890625 "/></g></g><g style="fill:#252b41;fill-opacity:1;"><g transform="translate(256.571782, 142.600448)"><path style="stroke:none" d="M 2.453125 0.09375 C 1.890625 0.09375 1.4375 -0.0195312 1.09375 -0.25 C 0.757812 -0.488281 0.566406 -0.820312 0.515625 -1.25 L 1.640625 -1.25 C 1.671875 -1.09375 1.757812 -0.972656 1.90625 -0.890625 C 2.050781 -0.804688 2.234375 -0.765625 2.453125 -0.765625 L 2.8125 -0.765625 C 3.082031 -0.765625 3.289062 -0.816406 3.4375 -0.921875 C 3.59375 -1.023438 3.671875 -1.171875 3.671875 -1.359375 C 3.671875 -1.679688 3.421875 -1.878906 2.921875 -1.953125 L 2.234375 -2.03125 C 1.679688 -2.101562 1.269531 -2.253906 1 -2.484375 C 0.738281 -2.722656 0.609375 -3.0625 0.609375 -3.5 C 0.609375 -3.957031 0.769531 -4.3125 1.09375 -4.5625 C 1.414062 -4.8125 1.875 -4.9375 2.46875 -4.9375 L 2.84375 -4.9375 C 3.375 -4.9375 3.800781 -4.820312 4.125 -4.59375 C 4.457031 -4.363281 4.648438 -4.046875 4.703125 -3.640625 L 3.578125 -3.640625 C 3.546875 -3.773438 3.460938 -3.882812 3.328125 -3.96875 C 3.203125 -4.050781 3.039062 -4.09375 2.84375 -4.09375 L 2.46875 -4.09375 C 1.957031 -4.09375 1.703125 -3.910156 1.703125 -3.546875 C 1.703125 -3.234375 1.921875 -3.050781 2.359375 -3 L 3.0625 -2.90625 C 3.644531 -2.832031 4.070312 -2.671875 4.34375 -2.421875 C 4.625 -2.179688 4.765625 -1.84375 4.765625 -1.40625 C 4.765625 -0.925781 4.59375 -0.554688 4.25 -0.296875 C 3.914062 -0.0351562 3.4375 0.09375 2.8125 0.09375 Z M 2.453125 0.09375 "/></g></g><g style="fill:#252b41;fill-opacity:1;"><g transform="translate(261.862493, 142.600448)"><path style="stroke:none" d="M 1.78125 -0.78125 C 1.78125 -1.039062 1.859375 -1.25 2.015625 -1.40625 C 2.171875 -1.5625 2.378906 -1.640625 2.640625 -1.640625 C 2.910156 -1.640625 3.117188 -1.5625 3.265625 -1.40625 C 3.421875 -1.25 3.5 -1.039062 3.5 -0.78125 C 3.5 -0.519531 3.421875 -0.304688 3.265625 -0.140625 C 3.117188 0.015625 2.910156 0.09375 2.640625 0.09375 C 2.378906 0.09375 2.171875 0.015625 2.015625 -0.140625 C 1.859375 -0.304688 1.78125 -0.519531 1.78125 -0.78125 Z M 1.78125 -0.78125 "/></g></g><g style="fill:#252b41;fill-opacity:1;"><g transform="translate(267.163623, 142.600448)"><path style="stroke:none" d=""/></g></g></g></svg>